<svg xmlns="http://www.w3.org/2000/svg" id="Layer_1" data-name="Layer 1" viewBox="0 0 302.05 65.95"><defs><style>.cls-1{fill:#b7a47b;}.cls-2{fill:#fff;}.cls-3{fill:none;stroke:#254039;stroke-miterlimit:10;stroke-width:2.65px;}.cls-4{fill:#254039;}.cls-5{fill:#c6c6c6;}</style></defs><path class="cls-1" d="M4.52,45.92a3.21,3.21,0,0,0-2,.6,2,2,0,0,0-.74,1.68A2.19,2.19,0,0,0,2,49.35a2.39,2.39,0,0,0,.81.83A7.12,7.12,0,0,0,4,50.77q.64.25,1.38.48l1.45.45a9.68,9.68,0,0,1,1.38.55A7.19,7.19,0,0,1,9.38,53a2.86,2.86,0,0,1,.8,1,3.31,3.31,0,0,1,.3,1.45,3.8,3.8,0,0,1-.76,2.32,4.75,4.75,0,0,1-2,1.54,7.47,7.47,0,0,1-2.84.54,8.13,8.13,0,0,1-2.72-.45A6.15,6.15,0,0,1,0,58.21l1-1.76a5,5,0,0,0,1.91,1.86A5.38,5.38,0,0,0,5.63,59,3.61,3.61,0,0,0,8,58.27a2.56,2.56,0,0,0,.92-2.09,2.67,2.67,0,0,0-.3-1.3,2.6,2.6,0,0,0-.8-.91,6,6,0,0,0-1.17-.63,14,14,0,0,0-1.37-.49l-1.46-.42a10,10,0,0,1-1.39-.49,6.15,6.15,0,0,1-1.17-.66,2.66,2.66,0,0,1-.8-1,3.06,3.06,0,0,1-.3-1.39,3.25,3.25,0,0,1,1.38-2.78,6.25,6.25,0,0,1,3.75-1,8.2,8.2,0,0,1,2.86.46,4.24,4.24,0,0,1,1.88,1.26L8.9,48.56a4,4,0,0,0-1.7-1.92A5.16,5.16,0,0,0,4.52,45.92Z"></path><path class="cls-1" d="M18.21,49.39H19.6L13.79,63.63l-1.54-.8,2-2.65.4-1.11H13.8l-3.71-9.68h1.78l1.45,3.76.88,2.42c.38,1.08.68,1.88.87,2.41Z"></path><path class="cls-1" d="M20.5,49.55l1.17-.21L22,51.58a5.27,5.27,0,0,1,1.56-1.79,3.49,3.49,0,0,1,2.05-.65,2.84,2.84,0,0,1,.58,0l-.16,2-1.19-.46a3.35,3.35,0,0,0-1,.15,2,2,0,0,0-.8.56,2.76,2.76,0,0,0-.6,1.21,9.8,9.8,0,0,0-.26,2v5H20.5Z"></path><path class="cls-1" d="M28.36,47.75,27,46.4l1.32-1.33,1.35,1.33Zm-.83,11.88V49.42l1.7-.28V59.63Z"></path><path class="cls-1" d="M35.88,49.91a3,3,0,0,0-1.93.75,4.44,4.44,0,0,0-1.37,1.89L31.35,51a6.24,6.24,0,0,1,4.22-1.83,4.59,4.59,0,0,1,1.43.22,3.86,3.86,0,0,1,1.2.64A3,3,0,0,1,39,51.11a3.68,3.68,0,0,1,.3,1.54v7h-.82l-.58-1.33a4.11,4.11,0,0,1-3.45,1.59,3.9,3.9,0,0,1-2.57-.82,2.66,2.66,0,0,1-1-2.17,2.73,2.73,0,0,1,.26-1.2,2.38,2.38,0,0,1,.68-.89,5.08,5.08,0,0,1,1-.61,5.18,5.18,0,0,1,1.21-.39c.42-.08.85-.14,1.29-.2a7.43,7.43,0,0,1,1.25-.08h1.12v-.76a4.08,4.08,0,0,0-.45-2.14A1.51,1.51,0,0,0,35.88,49.91Zm1.84,4.41H36.25a7.51,7.51,0,0,0-1.42.14,6.18,6.18,0,0,0-1.2.37,2,2,0,0,0-.84.69,1.84,1.84,0,0,0-.34,1.08,2.27,2.27,0,0,0,.75,1.73,2.65,2.65,0,0,0,1.9.69,2.43,2.43,0,0,0,1.9-.77,3,3,0,0,0,.71-2.1Z"></path><path class="cls-1" d="M41.4,49.55l1.16-.21.34,2.12a4.09,4.09,0,0,1,3.72-2.32,3.08,3.08,0,0,1,2.51,1.06A5,5,0,0,1,50,53.38v6.25H48.28V54.12a10.22,10.22,0,0,0-.11-1.66,4.67,4.67,0,0,0-.31-1.15,2.24,2.24,0,0,0-.48-.7,1.69,1.69,0,0,0-.61-.38,2.38,2.38,0,0,0-.7-.11A2.43,2.43,0,0,0,44,51.26a6.45,6.45,0,0,0-.9,3.18v5.18H41.4Z"></path><path class="cls-1" d="M55.59,45.34h1.78V59.63H55.59Z"></path><path class="cls-1" d="M59.7,49.55l1.17-.21.33,2.12a4.07,4.07,0,0,1,3.73-2.32,3.06,3.06,0,0,1,2.5,1.06,4.91,4.91,0,0,1,.88,3.17v6.25H66.6v-5.5a10.22,10.22,0,0,0-.11-1.66,5.15,5.15,0,0,0-.31-1.15,2.24,2.24,0,0,0-.48-.7,1.69,1.69,0,0,0-.61-.38,2.38,2.38,0,0,0-.7-.11,2.43,2.43,0,0,0-2.09,1.14,6.45,6.45,0,0,0-.9,3.18v5.18H59.7Z"></path><path class="cls-1" d="M68.7,49.39h1.75L73,55.92l.84,2.45,2.44-6.1.4-2.87h1.78L74.31,59.63H72.74Z"></path><path class="cls-1" d="M80,54.86a5.61,5.61,0,0,0,1.18,2.92,3,3,0,0,0,2.43,1.13,3.6,3.6,0,0,0,1.76-.42,5.43,5.43,0,0,0,1.28-1l.49.5a5.43,5.43,0,0,1-4.07,1.85,4.45,4.45,0,0,1-3.5-1.4,5.5,5.5,0,0,1-1.27-3.83,6.65,6.65,0,0,1,.39-2.34,4.78,4.78,0,0,1,1-1.74,4.7,4.7,0,0,1,1.56-1.06,5.1,5.1,0,0,1,1.93-.37,3.67,3.67,0,0,1,3,1.33,5.77,5.77,0,0,1,1.06,3.71v.67ZM82.79,50a2.65,2.65,0,0,0-1.17.25,2.28,2.28,0,0,0-.82.66,3.29,3.29,0,0,0-.51.94,5.36,5.36,0,0,0-.27,1.1,8.89,8.89,0,0,0-.08,1.15h5.63a5.33,5.33,0,0,0-.76-3A2.35,2.35,0,0,0,82.79,50Z"></path><path class="cls-1" d="M91.89,49.91a2.37,2.37,0,0,0-1.46.41,1.31,1.31,0,0,0-.55,1.11,1.36,1.36,0,0,0,.39,1,3,3,0,0,0,1,.67c.46.18.92.34,1.39.48s1,.3,1.51.48a9.94,9.94,0,0,1,1.39.58,2.8,2.8,0,0,1,1,.88A2.14,2.14,0,0,1,97,56.75,2.58,2.58,0,0,1,95.67,59a5.9,5.9,0,0,1-3.28.87,6.64,6.64,0,0,1-2.45-.44,4.74,4.74,0,0,1-1.83-1.26l1.17-1.6a4.1,4.1,0,0,0,1.5,1.84,4.06,4.06,0,0,0,2.32.67,2.81,2.81,0,0,0,1.73-.48,1.56,1.56,0,0,0,.31-2.19l-.08-.1a2.85,2.85,0,0,0-1-.71,11.43,11.43,0,0,0-1.38-.51l-1.52-.5A9.18,9.18,0,0,1,89.77,54a2.93,2.93,0,0,1-1-.87,2.15,2.15,0,0,1-.4-1.27,2.31,2.31,0,0,1,1.11-2,5.3,5.3,0,0,1,3-.74,6.48,6.48,0,0,1,2.47.45,4.33,4.33,0,0,1,1.72,1.23L95.43,52.5A4.5,4.5,0,0,0,94,50.63,3.4,3.4,0,0,0,91.89,49.91Z"></path><path class="cls-1" d="M96.93,50.26l.23-.87h1.63V47.26l1.65-.29v2.42H104l-.3,1.16-3.26-.24v5.74a3.62,3.62,0,0,0,.48,2.1,1.79,1.79,0,0,0,1.54.66h1.22l-.29.83h-1.11a3.51,3.51,0,0,1-2.71-.87,4.28,4.28,0,0,1-.79-2.91v-5.6Z"></path><path class="cls-1" d="M105,49.55l1.17-.21.33,2.12a4.12,4.12,0,0,1,3.73-2.32,3,3,0,0,1,3.16,2.38,4.09,4.09,0,0,1,3.77-2.38,3.05,3.05,0,0,1,2.51,1.06,5,5,0,0,1,.85,3.18v6.25h-1.7V54.12a10.22,10.22,0,0,0-.11-1.66,4.67,4.67,0,0,0-.31-1.15,2.08,2.08,0,0,0-.48-.7,1.61,1.61,0,0,0-.61-.38,2.31,2.31,0,0,0-.69-.11,2.45,2.45,0,0,0-2.23,1.37,7.49,7.49,0,0,0-.79,3.76v4.37h-1.69v-5.5a10.22,10.22,0,0,0-.11-1.66,4.67,4.67,0,0,0-.31-1.15,2.24,2.24,0,0,0-.48-.7,1.69,1.69,0,0,0-.61-.38,2.33,2.33,0,0,0-.7-.11,2.41,2.41,0,0,0-2.09,1.16,6.56,6.56,0,0,0-.91,3.18v5.18H105Z"></path><path class="cls-1" d="M123.73,54.86a5.51,5.51,0,0,0,1.19,2.92,3,3,0,0,0,2.42,1.13,3.6,3.6,0,0,0,1.76-.42,5.23,5.23,0,0,0,1.28-1l.49.5a5.47,5.47,0,0,1-4.07,1.86,4.49,4.49,0,0,1-3.5-1.41A5.46,5.46,0,0,1,122,54.66a6.65,6.65,0,0,1,.39-2.34,4.78,4.78,0,0,1,1-1.74A4.64,4.64,0,0,1,125,49.52a5,5,0,0,1,1.92-.37,3.63,3.63,0,0,1,3,1.33,5.83,5.83,0,0,1,1.07,3.71v.66ZM126.52,50a2.58,2.58,0,0,0-1.16.25,2.28,2.28,0,0,0-.82.66,3.32,3.32,0,0,0-.52.94,7.06,7.06,0,0,0-.27,1.1,8.88,8.88,0,0,0-.07,1.15h5.63a5.33,5.33,0,0,0-.77-3A2.3,2.3,0,0,0,126.52,50Z"></path><path class="cls-1" d="M132.66,49.55l1.17-.21.33,2.12a4.08,4.08,0,0,1,3.73-2.32,3.08,3.08,0,0,1,2.51,1.06,4.91,4.91,0,0,1,.87,3.17v6.25h-1.7v-5.5a11.48,11.48,0,0,0-.12-1.66,4.64,4.64,0,0,0-.3-1.15,2.12,2.12,0,0,0-.49-.69,1.61,1.61,0,0,0-.61-.38,2,2,0,0,0-.7-.1,2.38,2.38,0,0,0-2.08,1.13,6.35,6.35,0,0,0-.91,3.18v5.18h-1.7Z"></path><path class="cls-1" d="M142,50.26l.23-.87h1.63V47.26l1.65-.29v2.42h3.56l-.3,1.16-3.26-.24v5.74a3.62,3.62,0,0,0,.48,2.1,1.79,1.79,0,0,0,1.54.66h1.22l-.29.83h-1.09a3.55,3.55,0,0,1-2.72-.87,4.33,4.33,0,0,1-.78-2.91v-5.6Z"></path><path class="cls-1" d="M152,59.63l5.54-14.29h1.88l5.5,14.29h-1.8l-1.67-4.4h-6.69l-1,4.4Zm3.08-5.26h6.1l-3.06-7.94Z"></path><path class="cls-1" d="M172.2,49.44l1.7-.3V59.63h-1L172.48,58a4.48,4.48,0,0,1-3.74,1.92q-3.42,0-3.42-4.37v-6.1l1.67-.28v5.59a6.68,6.68,0,0,0,.57,3.1,1.9,1.9,0,0,0,1.81,1.06,2.53,2.53,0,0,0,.78-.1,2.6,2.6,0,0,0,.75-.36,2.63,2.63,0,0,0,.66-.67,3.39,3.39,0,0,0,.47-1,6.16,6.16,0,0,0,.2-1.42Z"></path><path class="cls-1" d="M174.94,50.26l.22-.87h1.63V47.26l1.66-.29v2.42H182l-.31,1.16-3.25-.24v5.74a3.7,3.7,0,0,0,.47,2.1,1.79,1.79,0,0,0,1.54.66h1.22l-.29.83h-1.11a3.54,3.54,0,0,1-2.71-.87,4.28,4.28,0,0,1-.79-2.91v-5.6Z"></path><path class="cls-1" d="M183,59.63V45.21l1.69-.28v6.19a4,4,0,0,1,3.53-2,3.07,3.07,0,0,1,2.51,1.06,5,5,0,0,1,.88,3.18v6.25h-1.71v-5.5a10.22,10.22,0,0,0-.11-1.66,5.15,5.15,0,0,0-.31-1.15,2.27,2.27,0,0,0-.49-.7,1.65,1.65,0,0,0-.6-.38,2.38,2.38,0,0,0-.7-.11,2.41,2.41,0,0,0-2.1,1.16,6.23,6.23,0,0,0-.9,3.23v5.11Z"></path><path class="cls-1" d="M197.85,49.14a4.41,4.41,0,0,1,3.48,1.42,5.76,5.76,0,0,1,1.24,3.94,5.82,5.82,0,0,1-1.24,4,5,5,0,0,1-7,0,5.76,5.76,0,0,1-1.26-4,5.7,5.7,0,0,1,1.26-3.94A4.45,4.45,0,0,1,197.85,49.14Zm-.56.89a2.19,2.19,0,0,0-1.9.92,4.43,4.43,0,0,0-.64,2.62,6.91,6.91,0,0,0,1,4A3,3,0,0,0,198.39,59a2.18,2.18,0,0,0,1.92-.91,4.57,4.57,0,0,0,.65-2.61,7,7,0,0,0-1-4A3.08,3.08,0,0,0,197.29,50Z"></path><path class="cls-1" d="M204.33,49.55l1.17-.21.33,2.24a5.27,5.27,0,0,1,1.56-1.79,3.52,3.52,0,0,1,2.05-.65,2.78,2.78,0,0,1,.58,0l-.16,2-1.19-.46a3.35,3.35,0,0,0-1,.15,2,2,0,0,0-.8.56,2.76,2.76,0,0,0-.6,1.21,10.54,10.54,0,0,0-.26,2v5h-1.69Z"></path><path class="cls-1" d="M212.18,47.75l-1.32-1.35,1.32-1.33,1.35,1.33Zm-.83,11.88V49.42l1.7-.28V59.63Z"></path><path class="cls-1" d="M214,50.26l.22-.87h1.63V47.26l1.66-.29v2.42h3.57l-.31,1.16-3.25-.24v5.74a3.7,3.7,0,0,0,.47,2.1,1.79,1.79,0,0,0,1.54.66h1.22l-.29.83h-1.11a3.52,3.52,0,0,1-2.71-.87,4.28,4.28,0,0,1-.79-2.91v-5.6Z"></path><path class="cls-1" d="M229.09,49.39h1.4l-5.81,14.24-1.52-.8,2-2.65.4-1.11h-.86L221,49.39h1.78l1.44,3.76c.2.53.49,1.33.87,2.42s.67,1.88.88,2.41Z"></path><path class="cls-1" d="M7.56,21.08l1.58-.4v7.85a2.8,2.8,0,0,0,.13.95,1.72,1.72,0,0,0,.39.61,1.51,1.51,0,0,0,.61.33,3.55,3.55,0,0,0,.72.15c.24,0,.54,0,.89,0V32a.59.59,0,0,1-.31.45,1.09,1.09,0,0,1-.56.18,2.84,2.84,0,0,1-3-2.71,6.89,6.89,0,0,1-1.91,1.53A4.68,4.68,0,0,1,3.8,32a3.14,3.14,0,0,1-2.31-.87,3.33,3.33,0,0,1-.9-2.49,4.21,4.21,0,0,1,1.09-3,6.75,6.75,0,0,1,2.91-1.83l3-1.12ZM2.72,19.21,1.25,17.74,2.72,16.3l1.46,1.44ZM4.11,30.06a6.37,6.37,0,0,0,3.76-1.35L7.7,24.62l-3.06.92c-2.07.67-3.1,1.57-3.1,2.71a1.53,1.53,0,0,0,.73,1.33A3.38,3.38,0,0,0,4.11,30.06ZM5.63,19.25,4.17,17.77l1.46-1.43L7.1,17.77Z"></path><path class="cls-1" d="M11.4,37.81,9.93,36.33l1.47-1.44,1.47,1.44ZM13.79,24.4l1.56-1.22a10.45,10.45,0,0,1,.94,3,25.35,25.35,0,0,1,.29,4.17v2.32H11V31l.87-.33h3.6A15.69,15.69,0,0,0,13.79,24.4Zm.52,13.43-1.47-1.45,1.47-1.44,1.47,1.44Z"></path><path class="cls-1" d="M16.05,36.31h.76A6.68,6.68,0,0,0,19,36a5.59,5.59,0,0,0,1.7-.91,6.08,6.08,0,0,0,1.17-1.26,5.25,5.25,0,0,0,.71-1.42A4.7,4.7,0,0,0,22.82,31a7.62,7.62,0,0,0-.47-2.36,17.78,17.78,0,0,0-1.23-2.79l1.53-1.23a11,11,0,0,1,1.29,5,9.81,9.81,0,0,1-1.32,4.9,11.87,11.87,0,0,1-3.86,4l-2.71-1.66Z"></path><path class="cls-1" d="M34.7,32.62a7.72,7.72,0,0,1-.64,2.15,8,8,0,0,1-1.16,1.84A13.13,13.13,0,0,1,31.53,38a12,12,0,0,1-1.39,1.07l-3.71-1.64v-.61h1.19a8.79,8.79,0,0,0,2.65-.37,5.44,5.44,0,0,0,1.9-1,5,5,0,0,0,1.15-1.35,3.94,3.94,0,0,0,.5-1.54H26.54V29.69a7.43,7.43,0,0,1,1-4.23,3.2,3.2,0,0,1,2.79-1.53,3.76,3.76,0,0,1,3.15,1.71,7.92,7.92,0,0,1,1.26,4.78v.18h1.7v1.61a3.54,3.54,0,0,1-.86.4Zm-7.34-1.95h6.33a6.57,6.57,0,0,0-1.37-3.58,3.29,3.29,0,0,0-2.57-1.32,1.93,1.93,0,0,0-1.8,1A6.7,6.7,0,0,0,27.36,30Z"></path><path class="cls-1" d="M36.45,30.61h3.92V31.7a1.17,1.17,0,0,1-.18.73,1,1,0,0,1-.69.19H35.59V31.53a1.08,1.08,0,0,1,.18-.72A.89.89,0,0,1,36.45,30.61Z"></path><path class="cls-1" d="M40.37,30.61h3.91V31.7a1.17,1.17,0,0,1-.18.73,1,1,0,0,1-.69.19H39.5V31.53a1.08,1.08,0,0,1,.18-.72A.9.9,0,0,1,40.37,30.61Z"></path><path class="cls-1" d="M44.28,30.61h3.91V31.7a1.17,1.17,0,0,1-.18.73.94.94,0,0,1-.69.19H43.41V31.53a1.14,1.14,0,0,1,.18-.72A.9.9,0,0,1,44.28,30.61Z"></path><path class="cls-1" d="M48.19,30.61H52.1V31.7a1.11,1.11,0,0,1-.18.73.94.94,0,0,1-.69.19H47.32V31.53a1.14,1.14,0,0,1,.18-.72A.9.9,0,0,1,48.19,30.61Z"></path><path class="cls-1" d="M52.1,30.61H56V31.7a1,1,0,0,1-.18.73.92.92,0,0,1-.68.19H51.23V31.53a1.14,1.14,0,0,1,.18-.72A.92.92,0,0,1,52.1,30.61Z"></path><path class="cls-1" d="M56,30.61h3.93V31.7a1.11,1.11,0,0,1-.18.73.94.94,0,0,1-.69.19H55.15V31.53a1,1,0,0,1,.18-.72A.89.89,0,0,1,56,30.61Z"></path><path class="cls-1" d="M59.94,30.61h3.91V31.7a1.11,1.11,0,0,1-.18.73.92.92,0,0,1-.68.19H59.06V31.53a1,1,0,0,1,.18-.72A.92.92,0,0,1,59.94,30.61Z"></path><path class="cls-1" d="M63.83,30.61h3.92V31.7a1.17,1.17,0,0,1-.18.73,1,1,0,0,1-.69.19H63V31.53a1.08,1.08,0,0,1,.18-.72A.89.89,0,0,1,63.83,30.61Z"></path><path class="cls-1" d="M80.72,25.12l1.56-1.22A13.21,13.21,0,0,1,83.52,30v.66h2.53v1.72l-.89.29H80.49A3.2,3.2,0,0,1,77.64,31a3.12,3.12,0,0,1-3,1.65,5.92,5.92,0,0,1-2.16-.41,6.5,6.5,0,0,1-1.83-1.08,2.85,2.85,0,0,1-1.42,1.19,7.38,7.38,0,0,1-2.38.3V31.13l.86-.52h1.66l1.82-4,1.5-.29-1.36,3.28a7.09,7.09,0,0,0,3.51,1h1.47l1.32-4,1.44-.29-1,3.36a3.26,3.26,0,0,0,.94.66,3.12,3.12,0,0,0,1.28.23h2A14.84,14.84,0,0,0,80.72,25.12Z"></path><path class="cls-1" d="M87.82,16.89l1.59-.38V32.62H85.14V31.08l.87-.46h2.16Z"></path><path class="cls-1" d="M93.6,32.62l-.37-15.73,1.6-.38V32.62Z"></path><path class="cls-1" d="M97.33,36.31h.75a6.64,6.64,0,0,0,2.21-.35,5.52,5.52,0,0,0,1.71-.91,6.08,6.08,0,0,0,1.17-1.26,5.25,5.25,0,0,0,.71-1.42A4.7,4.7,0,0,0,104.1,31a7.62,7.62,0,0,0-.47-2.36,17.78,17.78,0,0,0-1.23-2.79l1.53-1.23a11,11,0,0,1,1.29,5,9.81,9.81,0,0,1-1.32,4.9,11.78,11.78,0,0,1-3.87,4l-2.7-1.65Z"></path><path class="cls-1" d="M108,16.76l1.64-.37V30.61h2.51v1.72l-.87.29h-2.87Z"></path><path class="cls-1" d="M118.56,23.82a3.78,3.78,0,0,1,1.61.36,4.45,4.45,0,0,1,1.39,1,4.8,4.8,0,0,1,1,1.79,8.21,8.21,0,0,1,.37,2.51v1.09h1.92v1.72a2.37,2.37,0,0,1-.86.29h-5.74a4.14,4.14,0,0,1-3.87-2,3.7,3.7,0,0,1-1.23,1.51,3.21,3.21,0,0,1-1.88.5V31l.89-.33a1.92,1.92,0,0,0,.91-.2,1.41,1.41,0,0,0,.53-.47,3.57,3.57,0,0,0,.33-.75l.72-2a6.21,6.21,0,0,1,1.53-2.42A3.3,3.3,0,0,1,118.56,23.82Zm-3.8,5.89a4.21,4.21,0,0,0,1.56.73,10.06,10.06,0,0,0,2.12.17h3.31a7.24,7.24,0,0,0-.27-2,4.63,4.63,0,0,0-.65-1.41A3.91,3.91,0,0,0,119,25.86a3.19,3.19,0,0,0-.91-.14,2.48,2.48,0,0,0-1.73.69,4.32,4.32,0,0,0-1.12,1.84l-.46,1.44Z"></path><path class="cls-1" d="M127.53,24.4l1.55-1.22a10.17,10.17,0,0,1,.95,3,25.35,25.35,0,0,1,.29,4.17v.3h1.48v1.71l-.89.3H124V31l.87-.33h4.3A15.42,15.42,0,0,0,127.53,24.4Zm-1.29-3.72-1.47-1.47,1.47-1.44,1.46,1.44,1.45-1.44,1.48,1.44-1.48,1.47-1.44-1.47Zm1.44-2.74-1.42-1.43,1.42-1.41,1.4,1.41Z"></path><path class="cls-1" d="M131,32.62V31l.83-.33h3.65a15.69,15.69,0,0,0-1.66-6.22l1.55-1.22a10.44,10.44,0,0,1,1,3,25.15,25.15,0,0,1,.29,4.16v.3h2.5v1.72l-.88.29Zm2.12-11.92-1.46-1.47,1.46-1.44,1.48,1.44L136,17.79l1.48,1.44L136,20.7l-1.43-1.47Z"></path><path class="cls-1" d="M142.55,26.64l1.5-.29-1.37,3.28a7.27,7.27,0,0,0,3.52,1h1.47l1.32-4,1.44-.29-1,3.36a3.16,3.16,0,0,0,.93.66,3,3,0,0,0,1.29.23h2a14.93,14.93,0,0,0-1.64-5.5l1.56-1.21a13.14,13.14,0,0,1,1.23,6v2.68h-3A3.21,3.21,0,0,1,149,31a3.11,3.11,0,0,1-3,1.66,5.69,5.69,0,0,1-2.16-.42A6.29,6.29,0,0,1,142,31.13a2.83,2.83,0,0,1-1.42,1.18,7.39,7.39,0,0,1-2.38.31V31.13l.86-.52h1.66Z"></path><path class="cls-1" d="M157.07,30.61h5l-3.88-10.26,1.52-.86q1.49,4.19,1.65,4.72a26.5,26.5,0,0,1,1.47,6.42h.72v1.66l-.86.37h-6Zm.46,7.71,1.7-.49a1.81,1.81,0,0,1-1.15-1.78,1.83,1.83,0,0,1,.55-1.35,2,2,0,0,1,1.42-.53,2.44,2.44,0,0,1,.93.18,2,2,0,0,1,.63.37l-.23.81a3.74,3.74,0,0,0-1.44-.29,1.59,1.59,0,0,0-.94.27.71.71,0,0,0-.31.94.42.42,0,0,0,.11.15,1.67,1.67,0,0,0,.6.45,3.09,3.09,0,0,0,1.12.29,12.78,12.78,0,0,0,1.75,0l-.17,1-4.57.56Z"></path><path class="cls-1" d="M165.41,16.89l1.61-.38V32.62h-4.28V31.08l.85-.47h2.16Z"></path><path class="cls-1" d="M171.19,32.62l-.37-15.73,1.61-.38V32.62Z"></path><path class="cls-1" d="M186.26,21.08l1.59-.4v7.85a2.81,2.81,0,0,0,.14.95,1.82,1.82,0,0,0,.37.61,1.54,1.54,0,0,0,.6.33,3.14,3.14,0,0,0,.74.15c.23,0,.53,0,.88,0V32a.59.59,0,0,1-.31.45,1.12,1.12,0,0,1-.56.18,2.84,2.84,0,0,1-3-2.71,6.85,6.85,0,0,1-1.9,1.53,4.69,4.69,0,0,1-2.28.61,3.15,3.15,0,0,1-2.3-.88,3.34,3.34,0,0,1-.91-2.49,4.28,4.28,0,0,1,1.09-3,6.81,6.81,0,0,1,2.91-1.83l3-1.12Zm-4.83-1.87L180,17.74l1.47-1.44,1.46,1.44Zm1.37,10.85a6.37,6.37,0,0,0,3.77-1.35l-.17-4.09-3.06.92c-2.07.67-3.1,1.57-3.1,2.71a1.53,1.53,0,0,0,.73,1.33A3.37,3.37,0,0,0,182.8,30.06Zm1.52-10.81-1.46-1.48,1.46-1.43,1.47,1.43Z"></path><path class="cls-1" d="M190.54,30.61h3.91V31.7a1.11,1.11,0,0,1-.17.73,1,1,0,0,1-.69.19h-3.91V31.53a1.08,1.08,0,0,1,.18-.72A.89.89,0,0,1,190.54,30.61Z"></path><path class="cls-1" d="M193.59,32.62V31l.83-.33h3.64a15.48,15.48,0,0,0-1.63-6.22L198,23.2a10.42,10.42,0,0,1,.94,3,25.15,25.15,0,0,1,.29,4.16v.3h2.51v1.72l-.89.29Zm1.13-11.4,1.7-.46A1.79,1.79,0,0,1,195.28,19a1.85,1.85,0,0,1,.52-1.36,1.94,1.94,0,0,1,1.43-.52,2.48,2.48,0,0,1,.93.18,1.86,1.86,0,0,1,.62.37l-.22.78a4.42,4.42,0,0,0-1.44-.26,1.57,1.57,0,0,0-.94.27.7.7,0,0,0-.32.93l.11.16a1.86,1.86,0,0,0,.6.44,3.2,3.2,0,0,0,1.13.29,10.24,10.24,0,0,0,1.75,0l-.17,1-4.56.55Z"></path><path class="cls-1" d="M200.84,32.62V31l.83-.33h3.64a15.67,15.67,0,0,0-1.65-6.22l1.55-1.22a10.42,10.42,0,0,1,.94,3,25.16,25.16,0,0,1,.3,4.16v.3H209v1.72l-.88.29Zm1.83,5.19-1.47-1.48,1.47-1.44,1.46,1.44Zm2.94,0-1.47-1.45,1.48-1.44,1.47,1.44Z"></path><path class="cls-1" d="M209,30.61h3.91V31.7a1.11,1.11,0,0,1-.17.73,1,1,0,0,1-.69.19h-3.92V31.53a1.08,1.08,0,0,1,.18-.72A.92.92,0,0,1,209,30.61Z"></path><path class="cls-1" d="M212.87,30.61h3.91V31.7a1.11,1.11,0,0,1-.18.73.94.94,0,0,1-.69.19H212V31.53a1.14,1.14,0,0,1,.18-.72A.9.9,0,0,1,212.87,30.61Z"></path><path class="cls-1" d="M216.8,30.61h2a5.08,5.08,0,0,1-.89-1.48,4.91,4.91,0,0,1,.21-4,3.63,3.63,0,0,1,1.45-1.53,5.72,5.72,0,0,1-.63-.12l.08-1.81a22,22,0,0,1,4.19.86,13.86,13.86,0,0,1,3.31,1.54,6.75,6.75,0,0,1,2.22,2.32,6,6,0,0,1,.79,3v3.2h-13.6V31Zm4.42-6.51a2.07,2.07,0,0,0-1.33.48,3.19,3.19,0,0,0-.91,1.15,3.58,3.58,0,0,0-.33,1.36,2.82,2.82,0,0,0,.65,1.67,7,7,0,0,0,1.7,1.5c1.82-1.05,2.75-2,2.79-3a2.74,2.74,0,0,0-.17-.94,4.36,4.36,0,0,0-.47-1,2.53,2.53,0,0,0-.82-.84A2,2,0,0,0,221.22,24.1ZM224.93,27A4.38,4.38,0,0,1,223,30.62h5.4A6.16,6.16,0,0,0,227.33,27a6.8,6.8,0,0,0-3-2.15,4,4,0,0,1,.57,2.17Z"></path><path class="cls-2" d="M300.73,1.32H249.65V64.63h51.08Z"></path><path class="cls-3" d="M300.73,1.32H249.65V64.63h51.08Z"></path><path class="cls-4" d="M261.12,40.76a4.28,4.28,0,0,0-2.74.8,2.73,2.73,0,0,0-1,2.25,3,3,0,0,0,.4,1.54,3.37,3.37,0,0,0,1.08,1.11,10.32,10.32,0,0,0,1.56.79c.59.23,1.21.44,1.86.64s1.3.4,1.94.6a13.76,13.76,0,0,1,1.85.75,8.62,8.62,0,0,1,1.56,1,3.91,3.91,0,0,1,1.08,1.41,4.49,4.49,0,0,1,.4,1.94,5,5,0,0,1-1,3.12,6.23,6.23,0,0,1-2.72,2.06,9.89,9.89,0,0,1-3.8.71,10.9,10.9,0,0,1-3.64-.61,8.29,8.29,0,0,1-2.86-1.64l1.36-2.35A6.6,6.6,0,0,0,259,57.35a7.23,7.23,0,0,0,3.63.95,4.87,4.87,0,0,0,3.2-1,3.45,3.45,0,0,0,1.22-2.8,3.71,3.71,0,0,0-.4-1.73,3.56,3.56,0,0,0-1.08-1.23,8.86,8.86,0,0,0-1.56-.85,19.11,19.11,0,0,0-1.85-.64l-1.95-.56a15,15,0,0,1-1.85-.68,8.38,8.38,0,0,1-1.56-.9,3.73,3.73,0,0,1-1.08-1.33,4.18,4.18,0,0,1-.4-1.87A4.37,4.37,0,0,1,257.15,41a8.3,8.3,0,0,1,5-1.36,11.11,11.11,0,0,1,3.83.62,5.72,5.72,0,0,1,2.53,1.69L267,44.25a5.44,5.44,0,0,0-2.29-2.52A6.75,6.75,0,0,0,261.12,40.76Z"></path><path class="cls-4" d="M272.84,40h2.38V59.11h-2.38Z"></path><path class="cls-4" d="M277.84,59.11,285.25,40h2.52l7.37,19.14h-2.4l-2.25-5.88h-8.95l-1.31,5.88Zm4.12-7h8.16L286,41.43Z"></path><circle class="cls-5" cx="255.7" cy="7.9" r="1.11"></circle><circle class="cls-5" cx="262.08" cy="7.9" r="1.11"></circle><circle class="cls-4" cx="268.47" cy="7.9" r="1.11"></circle><circle class="cls-5" cx="274.86" cy="7.9" r="1.11"></circle><circle class="cls-5" cx="281.24" cy="7.9" r="1.11"></circle><circle class="cls-5" cx="255.7" cy="14.12" r="1.11"></circle><circle class="cls-5" cx="262.08" cy="14.12" r="1.11"></circle><circle class="cls-4" cx="268.47" cy="14.12" r="1.11"></circle><circle class="cls-4" cx="274.86" cy="14.12" r="1.11"></circle><circle class="cls-5" cx="281.24" cy="14.12" r="1.11"></circle><circle class="cls-5" cx="255.7" cy="20.34" r="1.11"></circle><circle class="cls-4" cx="262.08" cy="20.34" r="1.11"></circle><circle class="cls-4" cx="268.47" cy="20.34" r="1.11"></circle><circle class="cls-4" cx="274.86" cy="20.34" r="1.11"></circle><circle class="cls-5" cx="281.24" cy="20.34" r="1.11"></circle><circle class="cls-5" cx="255.7" cy="26.56" r="1.11"></circle><circle class="cls-4" cx="262.08" cy="26.56" r="1.11"></circle><circle class="cls-4" cx="268.47" cy="26.56" r="1.11"></circle><circle class="cls-4" cx="274.86" cy="26.56" r="1.11"></circle><circle class="cls-4" cx="281.24" cy="26.56" r="1.11"></circle><circle class="cls-5" cx="255.7" cy="32.78" r="1.11"></circle><circle class="cls-4" cx="255.7" cy="26.56" r="1.11"></circle><circle class="cls-4" cx="255.7" cy="32.78" r="1.11"></circle><circle class="cls-4" cx="262.08" cy="32.78" r="1.11"></circle><circle class="cls-4" cx="268.47" cy="32.78" r="1.11"></circle><circle class="cls-4" cx="274.86" cy="32.78" r="1.11"></circle><circle class="cls-4" cx="281.24" cy="32.78" r="1.11"></circle></svg>